# xmcd
#
# Track frame offsets:
#	150
#	14366
#	29968
#	47291
#	60681
#	81452
#	95380
#	106950
#	120647
#	131897
#	153651
#	165899
#	184030
#	200766
#
# Disc length: 2861 seconds
# Revision: 0
# Processed by: cddbd v1.5.2PL0 Copyright (c) Steve Scherf et al.
# Submitted via: dBpowerAMP V12.0
#
DISCID=be0b2b0e
DTITLE=Monroe Crossing - Joy Joy Joy
DYEAR=2012
DGENRE=Country
TTITLE0=Life's Railway to Heaven
TTITLE1=In the Garden
TTITLE2=Joy Joy Joy
TTITLE3=Micah 6:8
TTITLE4=My Name Is Judas
TTITLE5=Boy on the Gravestone
TTITLE6=When the Angels Carry Me Home
TTITLE7=Whispering Hope
TTITLE8=I Saw the Light
TTITLE9=Down to the River to Pray
TTITLE10=Keep on the Sunny Side
TTITLE11=Softly and Tenderly
TTITLE12=Rank Stranger
TTITLE13=I'll Fly Away
EXTD=
EXTT0=
EXTT1=
EXTT2=
EXTT3=
EXTT4=
EXTT5=
EXTT6=
EXTT7=
EXTT8=
EXTT9=
EXTT10=
EXTT11=
EXTT12=
EXTT13=
PLAYORDER=
